<svg width="137" height="190" viewBox="0 0 137 190" fill="none" xmlns="http://www.w3.org/2000/svg">
<path d="M87.9637 84.4033C97.1946 76.7661 101.285 31.6317 105.281 15.4079C109.276 -0.815879 125.802 0.00697925 125.802 0.00697925C125.802 0.00697925 121.512 7.47591 123.262 13.0496C125.012 18.6233 137 23.6054 137 23.6054L134.414 30.4241C134.414 30.4241 129.015 29.7333 125.802 36.1621C122.589 42.5909 129.827 105.593 129.827 105.593C129.827 105.593 108.557 144.346 108.557 160.432C108.557 176.518 116.169 190 116.169 190H105.488C105.488 190 89.8193 171.347 86.606 162.026C83.3926 152.704 84.6775 143.382 84.6775 143.382C84.6775 143.382 67.6462 142.418 52.5439 143.382C37.4415 144.346 27.3698 157.333 25.5521 164.597C23.7344 171.862 22.9814 190 22.9814 190H14.5361C9.39589 174.132 5.31343 168.445 7.52815 160.432C13.6627 138.239 12.4577 125.651 11.0373 120.045C9.61695 114.439 0 109.545 0 109.545C4.7109 99.9447 9.51954 95.3312 30.204 94.85C50.8884 94.3688 78.7329 92.0406 87.9637 84.4033Z" fill="#EC4815"/>
<path d="M32.6617 159.503C32.6617 159.503 34.8441 179.705 46.4379 190H56.3736C46.4379 178.741 45.3545 149.392 45.3545 149.392C40.3009 151.038 33.9682 156.501 32.6617 159.503Z" fill="#EC4815"/>
</svg>
